<svg width="190" height="64" viewBox="0 0 190 64" fill="none" xmlns="http://www.w3.org/2000/svg">
<rect x="59.4414" y="41.4268" width="4.68305" height="4.68305" fill="#B37E39"/>
<rect x="64.1191" y="46.1094" width="4.68305" height="4.68305" fill="#B37E39"/>
<rect x="54.7578" y="46.1094" width="4.68305" height="4.68305" fill="#B37E39"/>
<rect x="59.4414" y="50.7939" width="4.68305" height="4.68305" fill="#B37E39"/>
<path d="M43.8551 15.9935H44.824V8H15.999V15.7512H16.9679C17.4524 12.1179 18.6635 9.93781 22.0547 9.93781H28.1104V39.1815C27.93 39.6515 27.5647 39.9739 27.1414 39.9739H24.2347V41.4273H36.8305V39.9739H33.9238C33.5005 39.9739 33.1353 39.6515 32.9549 39.1815V9.93781H38.5261C42.4364 9.93781 43.1284 11.8756 43.8551 15.9935Z" fill="#B37E39"/>
<path d="M60.5697 29.3148H59.6008C58.0699 25.3123 58.4243 23.0169 54.5141 23.0169H47.4895V52.2606C47.6699 52.7306 48.0351 53.053 48.4584 53.053H51.8496V54.5064H39.2538V53.053H42.645C43.0682 53.053 43.4335 52.7306 43.6139 52.2606V23.0169H40.4649C37.2542 23.0169 35.3782 24.7592 35.3782 28.1037C35.3782 28.3496 35.3508 28.5921 35.3782 28.8304H33.9248V21.0791H60.5697V29.3148Z" fill="#B37E39"/>
<path d="M86.8247 20.5863V31.7383H85.3367V20.5863H86.8247ZM90.8727 20.5223V21.0663H81.2887V20.5223H90.8727ZM90.8727 21.0183V22.5063L90.7127 22.4903V22.2503C90.7127 21.9089 90.6007 21.6316 90.3767 21.4183C90.1633 21.1943 89.886 21.0769 89.5447 21.0663V21.0183H90.8727ZM90.8727 20.2343V20.6983L88.9207 20.5223C89.1553 20.5223 89.4007 20.5063 89.6567 20.4743C89.9233 20.4423 90.1687 20.4049 90.3927 20.3623C90.6167 20.3196 90.7767 20.2769 90.8727 20.2343ZM85.3847 30.5703V31.7383H84.1047V31.5783C84.1047 31.5783 84.1367 31.5783 84.2007 31.5783C84.2753 31.5783 84.3127 31.5783 84.3127 31.5783C84.59 31.5783 84.8247 31.4823 85.0167 31.2903C85.2193 31.0876 85.326 30.8476 85.3367 30.5703H85.3847ZM86.7767 30.5703H86.8247C86.8353 30.8476 86.9367 31.0876 87.1287 31.2903C87.3313 31.4823 87.5713 31.5783 87.8487 31.5783C87.8487 31.5783 87.8807 31.5783 87.9447 31.5783C88.0193 31.5783 88.0567 31.5783 88.0567 31.5783V31.7383H86.7767V30.5703ZM82.6167 21.0183V21.0663C82.2753 21.0769 81.9927 21.1943 81.7687 21.4183C81.5553 21.6316 81.4487 21.9089 81.4487 22.2503V22.4903L81.2887 22.5063V21.0183H82.6167ZM81.2887 20.2343C81.3953 20.2769 81.5553 20.3196 81.7687 20.3623C81.9927 20.4049 82.238 20.4423 82.5047 20.4743C82.7713 20.5063 83.0167 20.5223 83.2407 20.5223L81.2887 20.6983V20.2343ZM105.973 20.2823L110.869 31.6423H109.013L105.445 22.3303L105.973 20.2823ZM102.533 30.5703C102.459 30.7836 102.448 30.9649 102.501 31.1143C102.555 31.2636 102.64 31.3809 102.757 31.4663C102.885 31.5409 103.013 31.5783 103.141 31.5783H103.285V31.7383H100.005V31.5783C100.005 31.5783 100.032 31.5783 100.085 31.5783C100.128 31.5783 100.149 31.5783 100.149 31.5783C100.395 31.5783 100.645 31.5036 100.901 31.3543C101.168 31.1943 101.387 30.9329 101.557 30.5703H102.533ZM105.973 20.2823L106.101 21.6743L102.101 31.6903H101.061L105.173 22.0743C105.184 22.0529 105.221 21.9729 105.285 21.8343C105.36 21.6849 105.435 21.5089 105.509 21.3063C105.595 21.1036 105.669 20.9063 105.733 20.7143C105.797 20.5223 105.829 20.3783 105.829 20.2823H105.973ZM108.037 27.5623V28.1063H103.141V27.5623H108.037ZM108.597 30.5703H110.405C110.576 30.9329 110.789 31.1943 111.045 31.3543C111.312 31.5036 111.568 31.5783 111.813 31.5783C111.813 31.5783 111.835 31.5783 111.877 31.5783C111.92 31.5783 111.941 31.5783 111.941 31.5783V31.7383H107.845V31.5783H107.989C108.203 31.5783 108.389 31.4929 108.549 31.3223C108.709 31.1409 108.725 30.8903 108.597 30.5703ZM116.163 20.2983L125.763 30.1543L125.923 31.9623L116.323 22.1223L116.163 20.2983ZM116.211 30.6023V31.7383H114.883V31.5783C114.883 31.5783 114.931 31.5783 115.027 31.5783C115.123 31.5783 115.176 31.5783 115.187 31.5783C115.454 31.5783 115.683 31.4823 115.875 31.2903C116.067 31.0983 116.163 30.8689 116.163 30.6023H116.211ZM117.411 30.6023C117.411 30.8689 117.507 31.0983 117.699 31.2903C117.891 31.4823 118.12 31.5783 118.387 31.5783C118.398 31.5783 118.451 31.5783 118.547 31.5783C118.643 31.5783 118.691 31.5783 118.691 31.5783V31.7383H117.363V30.6023H117.411ZM116.163 20.2983L117.395 21.7063L117.411 31.7383H116.163V22.2983C116.163 21.7329 116.136 21.2583 116.083 20.8743C116.03 20.4903 116.003 20.2983 116.003 20.2983H116.163ZM125.907 20.5383V29.9143C125.907 30.2769 125.918 30.6183 125.939 30.9383C125.971 31.2476 125.998 31.4983 126.019 31.6903C126.051 31.8716 126.067 31.9623 126.067 31.9623H125.923L124.675 30.5383V20.5383H125.907ZM127.187 20.5383V20.6983C127.187 20.6983 127.139 20.6983 127.043 20.6983C126.947 20.6983 126.899 20.6983 126.899 20.6983C126.632 20.6983 126.403 20.7943 126.211 20.9863C126.019 21.1676 125.918 21.3969 125.907 21.6743H125.859V20.5383H127.187ZM123.379 20.5383H124.707V21.6743H124.675C124.664 21.3969 124.563 21.1676 124.371 20.9863C124.19 20.7943 123.96 20.6983 123.683 20.6983C123.683 20.6983 123.635 20.6983 123.539 20.6983C123.443 20.6983 123.39 20.6983 123.379 20.6983V20.5383ZM136.61 20.5383C137.794 20.5383 138.823 20.7676 139.698 21.2263C140.572 21.6849 141.255 22.3356 141.746 23.1783C142.236 24.0209 142.482 25.0076 142.482 26.1383C142.482 27.2689 142.236 28.2556 141.746 29.0983C141.255 29.9303 140.572 30.5809 139.698 31.0503C138.823 31.5089 137.794 31.7383 136.61 31.7383H133.058L133.042 31.1943C133.148 31.1943 133.33 31.1943 133.586 31.1943C133.852 31.1943 134.151 31.1943 134.482 31.1943C134.823 31.1943 135.148 31.1943 135.458 31.1943C135.778 31.1943 136.039 31.1943 136.242 31.1943C136.444 31.1943 136.546 31.1943 136.546 31.1943C137.41 31.1943 138.162 30.9863 138.802 30.5703C139.442 30.1543 139.938 29.5676 140.29 28.8103C140.642 28.0529 140.818 27.1623 140.818 26.1383C140.818 25.1143 140.642 24.2236 140.29 23.4663C139.938 22.7089 139.442 22.1223 138.802 21.7063C138.162 21.2903 137.41 21.0823 136.546 21.0823C136.546 21.0823 136.439 21.0823 136.226 21.0823C136.012 21.0823 135.74 21.0823 135.41 21.0823C135.09 21.0823 134.754 21.0823 134.402 21.0823C134.06 21.0823 133.746 21.0823 133.458 21.0823C133.18 21.0823 132.988 21.0823 132.882 21.0823V20.5383H136.61ZM133.778 20.5383V31.7383H132.29V20.5383H133.778ZM132.338 30.5703V31.7383H131.058V31.5783C131.058 31.5783 131.09 31.5783 131.154 31.5783C131.228 31.5783 131.266 31.5783 131.266 31.5783C131.543 31.5783 131.778 31.4823 131.97 31.2903C132.172 31.0876 132.279 30.8476 132.29 30.5703H132.338ZM132.338 21.7063H132.29C132.29 21.4289 132.188 21.1943 131.986 21.0023C131.783 20.7996 131.543 20.6983 131.266 20.6983C131.266 20.6983 131.234 20.6983 131.17 20.6983C131.106 20.6983 131.074 20.6983 131.074 20.6983L131.058 20.5383H132.338V21.7063ZM158.294 20.5863V31.7383H156.806V20.5863H158.294ZM162.342 20.5223V21.0663H152.758V20.5223H162.342ZM162.342 21.0183V22.5063L162.182 22.4903V22.2503C162.182 21.9089 162.07 21.6316 161.846 21.4183C161.633 21.1943 161.355 21.0769 161.014 21.0663V21.0183H162.342ZM162.342 20.2343V20.6983L160.39 20.5223C160.625 20.5223 160.87 20.5063 161.126 20.4743C161.393 20.4423 161.638 20.4049 161.862 20.3623C162.086 20.3196 162.246 20.2769 162.342 20.2343ZM156.854 30.5703V31.7383H155.574V31.5783C155.574 31.5783 155.606 31.5783 155.67 31.5783C155.745 31.5783 155.782 31.5783 155.782 31.5783C156.059 31.5783 156.294 31.4823 156.486 31.2903C156.689 31.0876 156.795 30.8476 156.806 30.5703H156.854ZM158.246 30.5703H158.294C158.305 30.8476 158.406 31.0876 158.598 31.2903C158.801 31.4823 159.041 31.5783 159.318 31.5783C159.318 31.5783 159.35 31.5783 159.414 31.5783C159.489 31.5783 159.526 31.5783 159.526 31.5783V31.7383H158.246V30.5703ZM154.086 21.0183V21.0663C153.745 21.0769 153.462 21.1943 153.238 21.4183C153.025 21.6316 152.918 21.9089 152.918 22.2503V22.4903L152.758 22.5063V21.0183H154.086ZM152.758 20.2343C152.865 20.2769 153.025 20.3196 153.238 20.3623C153.462 20.4049 153.707 20.4423 153.974 20.4743C154.241 20.5063 154.486 20.5223 154.71 20.5223L152.758 20.6983V20.2343Z" fill="white"/>
<path d="M163 40.9346H174.002" stroke="#B37E39"/>
<path d="M86.1646 44.8343C85.5246 44.8343 84.9326 44.7303 84.3886 44.5223C83.8526 44.3063 83.3846 44.0063 82.9846 43.6223C82.5926 43.2303 82.2846 42.7743 82.0606 42.2543C81.8366 41.7343 81.7246 41.1623 81.7246 40.5383C81.7246 39.9143 81.8366 39.3423 82.0606 38.8223C82.2846 38.3023 82.5966 37.8503 82.9966 37.4663C83.3966 37.0743 83.8646 36.7743 84.4006 36.5663C84.9446 36.3503 85.5366 36.2423 86.1766 36.2423C86.8246 36.2423 87.4206 36.3543 87.9646 36.5783C88.5166 36.7943 88.9846 37.1183 89.3686 37.5503L88.5886 38.3063C88.2686 37.9703 87.9086 37.7223 87.5086 37.5623C87.1086 37.3943 86.6806 37.3103 86.2246 37.3103C85.7526 37.3103 85.3126 37.3903 84.9046 37.5503C84.5046 37.7103 84.1566 37.9343 83.8606 38.2223C83.5646 38.5103 83.3326 38.8543 83.1646 39.2543C83.0046 39.6463 82.9246 40.0743 82.9246 40.5383C82.9246 41.0023 83.0046 41.4343 83.1646 41.8343C83.3326 42.2263 83.5646 42.5663 83.8606 42.8543C84.1566 43.1423 84.5046 43.3663 84.9046 43.5263C85.3126 43.6863 85.7526 43.7663 86.2246 43.7663C86.6806 43.7663 87.1086 43.6863 87.5086 43.5263C87.9086 43.3583 88.2686 43.1023 88.5886 42.7583L89.3686 43.5143C88.9846 43.9463 88.5166 44.2743 87.9646 44.4983C87.4206 44.7223 86.8206 44.8343 86.1646 44.8343ZM96.7334 44.8343C96.0934 44.8343 95.4974 44.7263 94.9454 44.5103C94.4014 44.2943 93.9294 43.9943 93.5294 43.6103C93.1294 43.2183 92.8174 42.7623 92.5934 42.2423C92.3694 41.7223 92.2574 41.1543 92.2574 40.5383C92.2574 39.9223 92.3694 39.3543 92.5934 38.8343C92.8174 38.3143 93.1294 37.8623 93.5294 37.4783C93.9294 37.0863 94.4014 36.7823 94.9454 36.5663C95.4894 36.3503 96.0854 36.2423 96.7334 36.2423C97.3734 36.2423 97.9614 36.3503 98.4974 36.5663C99.0414 36.7743 99.5134 37.0743 99.9134 37.4663C100.321 37.8503 100.633 38.3023 100.849 38.8223C101.073 39.3423 101.185 39.9143 101.185 40.5383C101.185 41.1623 101.073 41.7343 100.849 42.2543C100.633 42.7743 100.321 43.2303 99.9134 43.6223C99.5134 44.0063 99.0414 44.3063 98.4974 44.5223C97.9614 44.7303 97.3734 44.8343 96.7334 44.8343ZM96.7334 43.7663C97.1974 43.7663 97.6254 43.6863 98.0174 43.5263C98.4174 43.3663 98.7614 43.1423 99.0494 42.8543C99.3454 42.5583 99.5734 42.2143 99.7334 41.8223C99.9014 41.4303 99.9854 41.0023 99.9854 40.5383C99.9854 40.0743 99.9014 39.6463 99.7334 39.2543C99.5734 38.8623 99.3454 38.5223 99.0494 38.2343C98.7614 37.9383 98.4174 37.7103 98.0174 37.5503C97.6254 37.3903 97.1974 37.3103 96.7334 37.3103C96.2614 37.3103 95.8254 37.3903 95.4254 37.5503C95.0334 37.7103 94.6894 37.9383 94.3934 38.2343C94.0974 38.5223 93.8654 38.8623 93.6974 39.2543C93.5374 39.6463 93.4574 40.0743 93.4574 40.5383C93.4574 41.0023 93.5374 41.4303 93.6974 41.8223C93.8654 42.2143 94.0974 42.5583 94.3934 42.8543C94.6894 43.1423 95.0334 43.3663 95.4254 43.5263C95.8254 43.6863 96.2614 43.7663 96.7334 43.7663ZM105.42 44.7383V36.3383H106.404L110.172 42.6863H109.644L113.364 36.3383H114.348L114.36 44.7383H113.208L113.196 38.1503H113.472L110.16 43.7183H109.608L106.272 38.1503H106.572V44.7383H105.42ZM119.281 44.7383V36.3383H122.557C123.293 36.3383 123.921 36.4543 124.441 36.6863C124.961 36.9183 125.361 37.2543 125.641 37.6943C125.921 38.1343 126.061 38.6583 126.061 39.2663C126.061 39.8743 125.921 40.3983 125.641 40.8383C125.361 41.2703 124.961 41.6063 124.441 41.8463C123.921 42.0783 123.293 42.1943 122.557 42.1943H119.941L120.481 41.6303V44.7383H119.281ZM120.481 41.7503L119.941 41.1503H122.521C123.289 41.1503 123.869 40.9863 124.261 40.6583C124.661 40.3303 124.861 39.8663 124.861 39.2663C124.861 38.6663 124.661 38.2023 124.261 37.8743C123.869 37.5463 123.289 37.3823 122.521 37.3823H119.941L120.481 36.7823V41.7503ZM128.53 44.7383L132.334 36.3383H133.522L137.338 44.7383H136.078L132.682 37.0103H133.162L129.766 44.7383H128.53ZM130.15 42.6383L130.474 41.6783H135.202L135.55 42.6383H130.15ZM140.991 44.7383V36.3383H141.975L147.531 43.2383H147.015V36.3383H148.215V44.7383H147.231L141.675 37.8383H142.191V44.7383H140.991ZM154.981 44.7383V41.5223L155.257 42.2663L151.645 36.3383H152.929L155.965 41.3423H155.269L158.317 36.3383H159.505L155.905 42.2663L156.169 41.5223V44.7383H154.981Z" fill="#B37E39"/>
</svg>
