<svg width="628" height="589" viewBox="0 0 628 589" fill="none" xmlns="http://www.w3.org/2000/svg">
<rect width="628.001" height="588.972" fill="#041625"/>
<rect x="438.777" y="365.447" width="34.2976" height="34.2976" fill="#B37E39"/>
<rect x="473.064" y="399.744" width="34.2976" height="34.2976" fill="#B37E39"/>
<rect x="404.475" y="399.744" width="34.2976" height="34.2976" fill="#B37E39"/>
<rect x="438.777" y="434.043" width="34.2976" height="34.2976" fill="#B37E39"/>
<path d="M324.644 179.175H331.74V120.633H120.633V177.401H127.729C131.277 150.791 140.147 134.825 164.983 134.825H209.333V348.999C208.012 352.442 205.337 354.803 202.237 354.803H180.949V365.447H273.198V354.803H251.91C248.81 354.803 246.135 352.442 244.814 348.999V134.825H285.616C314.254 134.825 319.322 149.017 324.644 179.175Z" fill="#B37E39"/>
<path d="M447.052 276.744H439.956C428.743 247.431 431.339 230.62 402.701 230.62H351.255V444.794C352.576 448.236 355.251 450.597 358.351 450.597H383.187V461.242H290.938V450.597H315.775C318.874 450.597 321.549 448.236 322.871 444.794V230.62H299.809C276.294 230.62 262.554 243.38 262.554 267.874C262.554 269.675 262.354 271.451 262.554 273.196H251.91V216.428H447.052V276.744Z" fill="#B37E39"/>
</svg>
